<svg xmlns="http://www.w3.org/2000/svg" xmlns:xlink="http://www.w3.org/1999/xlink" width="478" zoomAndPan="magnify" viewBox="0 0 358.5 358.499998" height="478" preserveAspectRatio="xMidYMid meet" version="1.0"><defs><g/><clipPath id="933f42e71c"><path d="M 172 172 L 282.644531 172 L 282.644531 282.644531 L 172 282.644531 Z M 172 172 " clip-rule="nonzero"/></clipPath><clipPath id="1ef1e86207"><path d="M 172 75.644531 L 282.644531 75.644531 L 282.644531 187 L 172 187 Z M 172 75.644531 " clip-rule="nonzero"/></clipPath><clipPath id="c8914141bb"><path d="M 75.644531 76 L 187 76 L 187 187 L 75.644531 187 Z M 75.644531 76 " clip-rule="nonzero"/></clipPath><clipPath id="d50067945c"><path d="M 76 172 L 187 172 L 187 282.644531 L 76 282.644531 Z M 76 172 " clip-rule="nonzero"/></clipPath><clipPath id="bee899e5e9"><path d="M 111.140625 111.140625 L 247.640625 111.140625 L 247.640625 247.640625 L 111.140625 247.640625 Z M 111.140625 111.140625 " clip-rule="nonzero"/></clipPath></defs><g clip-path="url(#933f42e71c)"><path fill="#ffd64b" d="M 188.726562 246.527344 C 190.722656 246.242188 192.707031 245.867188 194.671875 245.402344 C 196.640625 244.941406 198.582031 244.390625 200.496094 243.753906 C 202.414062 243.117188 204.300781 242.398438 206.152344 241.59375 C 208.003906 240.789062 209.816406 239.902344 211.589844 238.9375 C 213.363281 237.96875 215.089844 236.925781 216.769531 235.804688 C 218.449219 234.683594 220.078125 233.488281 221.652344 232.222656 C 223.222656 230.957031 224.738281 229.621094 226.191406 228.222656 C 227.648438 226.820312 229.035156 225.355469 230.359375 223.828125 C 231.683594 222.304688 232.933594 220.722656 234.117188 219.085938 C 235.300781 217.445312 236.40625 215.757812 237.4375 214.023438 C 238.46875 212.285156 239.421875 210.507812 240.292969 208.6875 C 241.164062 206.863281 241.953125 205.007812 242.660156 203.113281 C 243.367188 201.222656 243.988281 199.304688 244.523438 197.355469 C 245.058594 195.40625 245.503906 193.441406 245.863281 191.453125 C 246.222656 189.464844 246.492188 187.464844 246.671875 185.453125 C 246.851562 183.441406 246.941406 181.425781 246.941406 179.40625 C 246.941406 177.0625 246.824219 174.722656 246.585938 172.390625 L 263.726562 188.75 C 263.945312 188.957031 264.210938 189.0625 264.511719 189.0625 C 264.816406 189.0625 265.078125 188.957031 265.300781 188.75 L 282.414062 172.421875 C 282.566406 174.730469 282.65625 177.058594 282.65625 179.40625 C 282.65625 233.320312 241.433594 277.601562 188.789062 282.464844 L 172.203125 264.773438 Z M 188.726562 246.527344 " fill-opacity="1" fill-rule="nonzero"/></g><g clip-path="url(#1ef1e86207)"><path fill="#1d8dc5" d="M 246.527344 169.566406 C 246.238281 167.566406 245.863281 165.582031 245.402344 163.617188 C 244.9375 161.652344 244.386719 159.710938 243.75 157.796875 C 243.113281 155.878906 242.394531 153.996094 241.589844 152.144531 C 240.785156 150.292969 239.898438 148.480469 238.929688 146.707031 C 237.964844 144.933594 236.917969 143.207031 235.796875 141.527344 C 234.675781 139.847656 233.484375 138.222656 232.214844 136.648438 C 230.949219 135.078125 229.617188 133.5625 228.214844 132.109375 C 226.8125 130.65625 225.347656 129.269531 223.824219 127.945312 C 222.296875 126.621094 220.714844 125.371094 219.078125 124.1875 C 217.441406 123.007812 215.753906 121.902344 214.015625 120.871094 C 212.28125 119.839844 210.5 118.890625 208.679688 118.015625 C 206.859375 117.144531 205.003906 116.355469 203.109375 115.648438 C 201.21875 114.945312 199.296875 114.324219 197.351562 113.789062 C 195.402344 113.253906 193.4375 112.808594 191.449219 112.449219 C 189.460938 112.089844 187.464844 111.820312 185.453125 111.640625 C 183.441406 111.460938 181.425781 111.371094 179.40625 111.371094 C 177.0625 111.371094 174.722656 111.488281 172.390625 111.730469 L 188.75 94.585938 C 188.851562 94.480469 188.929688 94.359375 188.984375 94.226562 C 189.039062 94.089844 189.066406 93.949219 189.066406 93.800781 C 189.066406 93.652344 189.039062 93.511719 188.984375 93.378906 C 188.929688 93.242188 188.851562 93.121094 188.75 93.015625 L 172.421875 75.871094 C 174.730469 75.722656 177.058594 75.636719 179.40625 75.636719 C 233.320312 75.636719 277.601562 116.859375 282.460938 169.5 L 264.773438 186.085938 Z M 246.527344 169.566406 " fill-opacity="1" fill-rule="nonzero"/></g><g clip-path="url(#c8914141bb)"><path fill="#9f73b2" d="M 169.566406 112.246094 C 167.566406 112.535156 165.582031 112.910156 163.617188 113.371094 C 161.652344 113.835938 159.710938 114.386719 157.796875 115.023438 C 155.878906 115.660156 153.996094 116.378906 152.144531 117.183594 C 150.292969 117.988281 148.480469 118.875 146.707031 119.84375 C 144.933594 120.808594 143.207031 121.855469 141.527344 122.976562 C 139.847656 124.097656 138.222656 125.289062 136.648438 126.558594 C 135.078125 127.824219 133.5625 129.15625 132.109375 130.558594 C 130.65625 131.960938 129.269531 133.425781 127.945312 134.949219 C 126.621094 136.476562 125.371094 138.058594 124.1875 139.695312 C 123.007812 141.332031 121.902344 143.019531 120.871094 144.757812 C 119.839844 146.492188 118.890625 148.273438 118.015625 150.09375 C 117.144531 151.914062 116.355469 153.769531 115.648438 155.664062 C 114.945312 157.554688 114.324219 159.476562 113.789062 161.421875 C 113.253906 163.371094 112.808594 165.335938 112.449219 167.324219 C 112.089844 169.3125 111.820312 171.308594 111.640625 173.320312 C 111.460938 175.332031 111.371094 177.347656 111.371094 179.367188 C 111.371094 181.710938 111.488281 184.050781 111.730469 186.382812 L 94.5625 170.023438 C 94.34375 169.816406 94.082031 169.710938 93.777344 169.710938 C 93.472656 169.710938 93.210938 169.816406 92.988281 170.023438 L 75.878906 186.351562 C 75.722656 184.042969 75.636719 181.714844 75.636719 179.367188 C 75.636719 125.453125 116.855469 81.171875 169.5 76.308594 L 186.085938 94 Z M 169.566406 112.246094 " fill-opacity="1" fill-rule="nonzero"/></g><g clip-path="url(#d50067945c)"><path fill="#0e4e99" d="M 112.023438 188.726562 C 112.308594 190.722656 112.683594 192.707031 113.148438 194.671875 C 113.609375 196.640625 114.160156 198.582031 114.796875 200.496094 C 115.433594 202.414062 116.152344 204.300781 116.957031 206.152344 C 117.761719 208.003906 118.648438 209.816406 119.613281 211.589844 C 120.582031 213.363281 121.625 215.089844 122.746094 216.769531 C 123.867188 218.449219 125.0625 220.078125 126.328125 221.652344 C 127.59375 223.222656 128.929688 224.738281 130.328125 226.191406 C 131.730469 227.648438 133.195312 229.035156 134.722656 230.359375 C 136.246094 231.683594 137.828125 232.933594 139.464844 234.117188 C 141.105469 235.300781 142.792969 236.40625 144.527344 237.4375 C 146.265625 238.46875 148.042969 239.421875 149.863281 240.292969 C 151.6875 241.164062 153.542969 241.953125 155.4375 242.660156 C 157.328125 243.367188 159.25 243.988281 161.195312 244.523438 C 163.144531 245.058594 165.109375 245.503906 167.097656 245.863281 C 169.085938 246.222656 171.085938 246.492188 173.097656 246.671875 C 175.109375 246.851562 177.125 246.941406 179.144531 246.941406 C 181.488281 246.941406 183.828125 246.824219 186.160156 246.585938 L 169.800781 263.726562 C 169.59375 263.945312 169.488281 264.210938 169.488281 264.511719 C 169.488281 264.816406 169.59375 265.078125 169.800781 265.300781 L 186.128906 282.414062 C 183.820312 282.566406 181.492188 282.65625 179.144531 282.65625 C 125.230469 282.65625 80.949219 241.433594 76.085938 188.789062 L 93.773438 172.203125 Z M 112.023438 188.726562 " fill-opacity="1" fill-rule="nonzero"/></g><g clip-path="url(#bee899e5e9)"><path fill="#ffffff" d="M 247.640625 179.390625 C 247.640625 180.507812 247.613281 181.625 247.558594 182.738281 C 247.503906 183.855469 247.421875 184.96875 247.3125 186.078125 C 247.203125 187.191406 247.066406 188.300781 246.902344 189.40625 C 246.738281 190.507812 246.546875 191.609375 246.328125 192.707031 C 246.109375 193.800781 245.867188 194.890625 245.59375 195.972656 C 245.324219 197.058594 245.027344 198.132812 244.703125 199.203125 C 244.378906 200.269531 244.027344 201.332031 243.652344 202.382812 C 243.273438 203.433594 242.871094 204.476562 242.445312 205.507812 C 242.019531 206.539062 241.566406 207.5625 241.085938 208.570312 C 240.609375 209.582031 240.109375 210.578125 239.582031 211.5625 C 239.054688 212.546875 238.503906 213.519531 237.929688 214.476562 C 237.355469 215.4375 236.757812 216.378906 236.136719 217.308594 C 235.515625 218.238281 234.875 219.148438 234.210938 220.046875 C 233.542969 220.945312 232.855469 221.824219 232.148438 222.6875 C 231.441406 223.550781 230.710938 224.398438 229.960938 225.222656 C 229.210938 226.050781 228.441406 226.859375 227.648438 227.648438 C 226.859375 228.441406 226.050781 229.210938 225.222656 229.960938 C 224.398438 230.710938 223.550781 231.441406 222.6875 232.148438 C 221.824219 232.855469 220.945312 233.542969 220.046875 234.210938 C 219.148438 234.875 218.238281 235.515625 217.308594 236.136719 C 216.378906 236.757812 215.4375 237.355469 214.476562 237.929688 C 213.519531 238.503906 212.546875 239.054688 211.5625 239.582031 C 210.578125 240.109375 209.582031 240.609375 208.570312 241.085938 C 207.5625 241.566406 206.539062 242.019531 205.507812 242.445312 C 204.476562 242.871094 203.433594 243.273438 202.382812 243.652344 C 201.332031 244.027344 200.269531 244.378906 199.203125 244.703125 C 198.132812 245.027344 197.058594 245.324219 195.972656 245.59375 C 194.890625 245.867188 193.800781 246.109375 192.707031 246.328125 C 191.609375 246.546875 190.507812 246.738281 189.40625 246.902344 C 188.300781 247.066406 187.191406 247.203125 186.078125 247.3125 C 184.96875 247.421875 183.855469 247.503906 182.738281 247.558594 C 181.625 247.613281 180.507812 247.640625 179.390625 247.640625 C 178.273438 247.640625 177.15625 247.613281 176.042969 247.558594 C 174.925781 247.503906 173.8125 247.421875 172.699219 247.3125 C 171.589844 247.203125 170.480469 247.066406 169.375 246.902344 C 168.269531 246.738281 167.171875 246.546875 166.074219 246.328125 C 164.980469 246.109375 163.890625 245.867188 162.808594 245.59375 C 161.722656 245.324219 160.648438 245.027344 159.578125 244.703125 C 158.507812 244.378906 157.449219 244.027344 156.398438 243.652344 C 155.347656 243.273438 154.304688 242.871094 153.273438 242.445312 C 152.238281 242.019531 151.21875 241.566406 150.210938 241.085938 C 149.199219 240.609375 148.203125 240.109375 147.21875 239.582031 C 146.230469 239.054688 145.261719 238.503906 144.304688 237.929688 C 143.34375 237.355469 142.402344 236.757812 141.472656 236.136719 C 140.542969 235.515625 139.632812 234.875 138.734375 234.210938 C 137.835938 233.542969 136.957031 232.855469 136.09375 232.148438 C 135.230469 231.441406 134.382812 230.710938 133.554688 229.960938 C 132.730469 229.210938 131.921875 228.441406 131.128906 227.648438 C 130.339844 226.859375 129.570312 226.050781 128.820312 225.222656 C 128.070312 224.398438 127.339844 223.550781 126.632812 222.6875 C 125.921875 221.824219 125.238281 220.945312 124.570312 220.046875 C 123.90625 219.148438 123.261719 218.238281 122.640625 217.308594 C 122.023438 216.378906 121.425781 215.4375 120.851562 214.476562 C 120.277344 213.519531 119.726562 212.546875 119.199219 211.5625 C 118.671875 210.578125 118.171875 209.582031 117.691406 208.570312 C 117.214844 207.5625 116.761719 206.539062 116.335938 205.507812 C 115.90625 204.476562 115.507812 203.433594 115.128906 202.382812 C 114.753906 201.332031 114.402344 200.269531 114.078125 199.203125 C 113.753906 198.132812 113.457031 197.058594 113.1875 195.972656 C 112.914062 194.890625 112.667969 193.800781 112.453125 192.707031 C 112.234375 191.609375 112.042969 190.507812 111.878906 189.40625 C 111.714844 188.300781 111.578125 187.191406 111.46875 186.078125 C 111.359375 184.96875 111.277344 183.855469 111.222656 182.738281 C 111.167969 181.625 111.140625 180.507812 111.140625 179.390625 C 111.140625 178.273438 111.167969 177.15625 111.222656 176.042969 C 111.277344 174.925781 111.359375 173.8125 111.46875 172.699219 C 111.578125 171.589844 111.714844 170.480469 111.878906 169.375 C 112.042969 168.269531 112.234375 167.171875 112.453125 166.074219 C 112.667969 164.980469 112.914062 163.890625 113.1875 162.808594 C 113.457031 161.722656 113.753906 160.648438 114.078125 159.578125 C 114.402344 158.507812 114.753906 157.449219 115.128906 156.398438 C 115.507812 155.347656 115.90625 154.304688 116.335938 153.273438 C 116.761719 152.238281 117.214844 151.21875 117.691406 150.210938 C 118.171875 149.199219 118.671875 148.203125 119.199219 147.21875 C 119.726562 146.230469 120.277344 145.261719 120.851562 144.304688 C 121.425781 143.34375 122.023438 142.402344 122.640625 141.472656 C 123.261719 140.542969 123.90625 139.632812 124.570312 138.734375 C 125.238281 137.835938 125.921875 136.957031 126.632812 136.09375 C 127.339844 135.230469 128.070312 134.382812 128.820312 133.554688 C 129.570312 132.730469 130.339844 131.921875 131.128906 131.128906 C 131.921875 130.339844 132.730469 129.570312 133.554688 128.820312 C 134.382812 128.070312 135.230469 127.339844 136.09375 126.632812 C 136.957031 125.921875 137.835938 125.238281 138.734375 124.570312 C 139.632812 123.90625 140.542969 123.261719 141.472656 122.640625 C 142.402344 122.023438 143.34375 121.425781 144.304688 120.851562 C 145.261719 120.277344 146.230469 119.726562 147.21875 119.199219 C 148.203125 118.671875 149.199219 118.171875 150.210938 117.691406 C 151.21875 117.214844 152.238281 116.761719 153.273438 116.335938 C 154.304688 115.90625 155.347656 115.507812 156.398438 115.128906 C 157.449219 114.753906 158.507812 114.402344 159.578125 114.078125 C 160.648438 113.753906 161.722656 113.457031 162.808594 113.1875 C 163.890625 112.914062 164.980469 112.667969 166.074219 112.453125 C 167.171875 112.234375 168.269531 112.042969 169.375 111.878906 C 170.480469 111.714844 171.589844 111.578125 172.699219 111.46875 C 173.8125 111.359375 174.925781 111.277344 176.042969 111.222656 C 177.15625 111.167969 178.273438 111.140625 179.390625 111.140625 C 180.507812 111.140625 181.625 111.167969 182.738281 111.222656 C 183.855469 111.277344 184.96875 111.359375 186.078125 111.46875 C 187.191406 111.578125 188.300781 111.714844 189.40625 111.878906 C 190.507812 112.042969 191.609375 112.234375 192.707031 112.453125 C 193.800781 112.667969 194.890625 112.914062 195.972656 113.1875 C 197.058594 113.457031 198.132812 113.753906 199.203125 114.078125 C 200.269531 114.402344 201.332031 114.753906 202.382812 115.128906 C 203.433594 115.507812 204.476562 115.90625 205.507812 116.335938 C 206.539062 116.761719 207.5625 117.214844 208.570312 117.691406 C 209.582031 118.171875 210.578125 118.671875 211.5625 119.199219 C 212.546875 119.726562 213.519531 120.277344 214.476562 120.851562 C 215.4375 121.425781 216.378906 122.023438 217.308594 122.640625 C 218.238281 123.261719 219.148438 123.90625 220.046875 124.570312 C 220.945312 125.238281 221.824219 125.921875 222.6875 126.632812 C 223.550781 127.339844 224.398438 128.070312 225.222656 128.820312 C 226.050781 129.570312 226.859375 130.339844 227.648438 131.128906 C 228.441406 131.921875 229.210938 132.730469 229.960938 133.554688 C 230.710938 134.382812 231.441406 135.230469 232.148438 136.09375 C 232.855469 136.957031 233.542969 137.835938 234.210938 138.734375 C 234.875 139.632812 235.515625 140.542969 236.136719 141.472656 C 236.757812 142.402344 237.355469 143.34375 237.929688 144.304688 C 238.503906 145.261719 239.054688 146.230469 239.582031 147.21875 C 240.109375 148.203125 240.609375 149.199219 241.085938 150.210938 C 241.566406 151.21875 242.019531 152.238281 242.445312 153.273438 C 242.871094 154.304688 243.273438 155.347656 243.652344 156.398438 C 244.027344 157.449219 244.378906 158.507812 244.703125 159.578125 C 245.027344 160.648438 245.324219 161.722656 245.59375 162.808594 C 245.867188 163.890625 246.109375 164.980469 246.328125 166.074219 C 246.546875 167.171875 246.738281 168.269531 246.902344 169.375 C 247.066406 170.480469 247.203125 171.589844 247.3125 172.699219 C 247.421875 173.8125 247.503906 174.925781 247.558594 176.042969 C 247.613281 177.15625 247.640625 178.273438 247.640625 179.390625 Z M 247.640625 179.390625 " fill-opacity="1" fill-rule="nonzero"/></g><g fill="#000000" fill-opacity="1"><g transform="translate(135.968687, 197.999989)"><g><path d="M 33.359375 0 L 23.90625 -17.640625 L 15.640625 -17.640625 L 15.640625 0 L 6.859375 0 L 6.859375 -46.34375 L 23.5625 -46.34375 C 29.5625 -46.34375 34.046875 -45.140625 37.015625 -42.734375 C 39.992188 -40.335938 41.484375 -36.859375 41.484375 -32.296875 C 41.484375 -29.054688 40.75 -26.300781 39.28125 -24.03125 C 37.8125 -21.769531 35.632812 -20.082031 32.75 -18.96875 L 43.015625 0 Z M 15.640625 -25.359375 L 23.640625 -25.359375 C 26.566406 -25.359375 28.726562 -25.867188 30.125 -26.890625 C 31.519531 -27.910156 32.21875 -29.644531 32.21875 -32.09375 C 32.21875 -34.445312 31.53125 -36.109375 30.15625 -37.078125 C 28.78125 -38.054688 26.582031 -38.546875 23.5625 -38.546875 L 15.640625 -38.546875 Z M 15.640625 -25.359375 "/></g></g></g><g fill="#000000" fill-opacity="1"><g transform="translate(182.570639, 197.999989)"><g><path d="M 36.625 -14.71875 L 12.453125 -14.71875 C 12.804688 -12.050781 13.789062 -10.003906 15.40625 -8.578125 C 17.03125 -7.160156 19.195312 -6.453125 21.90625 -6.453125 C 23.90625 -6.453125 26.066406 -6.816406 28.390625 -7.546875 C 30.722656 -8.285156 32.890625 -9.296875 34.890625 -10.578125 L 35.15625 -10.578125 L 35.15625 -3.46875 C 33.375 -2.082031 31.335938 -1.023438 29.046875 -0.296875 C 26.765625 0.429688 24.363281 0.796875 21.84375 0.796875 C 18.195312 0.796875 15.019531 0.0664062 12.3125 -1.390625 C 9.601562 -2.859375 7.515625 -4.96875 6.046875 -7.71875 C 4.585938 -10.46875 3.859375 -13.6875 3.859375 -17.375 C 3.859375 -20.96875 4.554688 -24.140625 5.953125 -26.890625 C 7.359375 -29.648438 9.320312 -31.78125 11.84375 -33.28125 C 14.375 -34.789062 17.304688 -35.546875 20.640625 -35.546875 C 23.878906 -35.546875 26.707031 -34.8125 29.125 -33.34375 C 31.539062 -31.882812 33.394531 -29.78125 34.6875 -27.03125 C 35.976562 -24.28125 36.625 -21.0625 36.625 -17.375 Z M 20.640625 -28.5 C 18.554688 -28.5 16.8125 -27.8125 15.40625 -26.4375 C 14.007812 -25.0625 13.066406 -23.148438 12.578125 -20.703125 L 27.5625 -20.703125 C 27.207031 -23.234375 26.453125 -25.164062 25.296875 -26.5 C 24.140625 -27.832031 22.585938 -28.5 20.640625 -28.5 Z M 20.640625 -28.5 "/></g></g></g></svg>