<?xml version="1.0" encoding="UTF-8" standalone="no" ?>
<!DOCTYPE svg PUBLIC "-//W3C//DTD SVG 1.1//EN" "http://www.w3.org/Graphics/SVG/1.1/DTD/svg11.dtd">
<svg xmlns="http://www.w3.org/2000/svg" xmlns:xlink="http://www.w3.org/1999/xlink" version="1.1" width="150" height="50" viewBox="0 0 150 50" xml:space="preserve">
<desc>Created with Fabric.js 3.6.6</desc>
<defs>
</defs>
<g transform="matrix(1 0 0 1 75.5 24.37)"  >
<g style=""   >
		<g transform="matrix(1 0 0 1 -40.8 0.73)"  >
<path style="stroke: none; stroke-width: 1; stroke-dasharray: none; stroke-linecap: butt; stroke-dashoffset: 0; stroke-linejoin: miter; stroke-miterlimit: 4; fill: rgb(0,0,0); fill-rule: nonzero; opacity: 1;"  transform=" translate(-17.31, 21.59)" d="M 33.59375 -8.953125 L 28.390625 -8.953125 L 28.390625 0 L 19.46875 0 L 19.46875 -8.953125 L 1.03125 -8.953125 L 1.03125 -15.296875 L 19.96875 -43.1875 L 28.390625 -43.1875 L 28.390625 -16.046875 L 33.59375 -16.046875 Z M 19.46875 -16.046875 L 19.46875 -23.359375 C 19.46875 -24.585938 19.515625 -26.363281 19.609375 -28.6875 C 19.710938 -31.007812 19.796875 -32.359375 19.859375 -32.734375 L 19.609375 -32.734375 C 18.878906 -31.117188 18.003906 -29.539062 16.984375 -28 L 9.0625 -16.046875 Z M 19.46875 -16.046875" stroke-linecap="round" />
</g>
		<g transform="matrix(1 0 0 1 40.87 0.73)"  >
<path style="stroke: none; stroke-width: 1; stroke-dasharray: none; stroke-linecap: butt; stroke-dashoffset: 0; stroke-linejoin: miter; stroke-miterlimit: 4; fill: rgb(0,0,0); fill-rule: nonzero; opacity: 1;"  transform=" translate(-17.31, 21.59)" d="M 33.59375 -8.953125 L 28.390625 -8.953125 L 28.390625 0 L 19.46875 0 L 19.46875 -8.953125 L 1.03125 -8.953125 L 1.03125 -15.296875 L 19.96875 -43.1875 L 28.390625 -43.1875 L 28.390625 -16.046875 L 33.59375 -16.046875 Z M 19.46875 -16.046875 L 19.46875 -23.359375 C 19.46875 -24.585938 19.515625 -26.363281 19.609375 -28.6875 C 19.710938 -31.007812 19.796875 -32.359375 19.859375 -32.734375 L 19.609375 -32.734375 C 18.878906 -31.117188 18.003906 -29.539062 16.984375 -28 L 9.0625 -16.046875 Z M 19.46875 -16.046875" stroke-linecap="round" />
</g>
		<g transform="matrix(1 0 0 1 9.41 9.04)" clip-path="url(#CLIPPATH_9)"  >
<clipPath id="CLIPPATH_9" >
	<path transform="matrix(1 0 0 1 -0.06 -0.31) translate(-142.85, -120.1)" id="98" d="M 132 109 L 153.695312 109 L 153.695312 131.203125 L 132 131.203125 Z M 132 109" stroke-linecap="round" />
</clipPath>
<path style="stroke: none; stroke-width: 1; stroke-dasharray: none; stroke-linecap: butt; stroke-dashoffset: 0; stroke-linejoin: miter; stroke-miterlimit: 4; fill: rgb(255,214,75); fill-rule: nonzero; opacity: 1;"  transform=" translate(-142.91, -120.41)" d="M 135.339844 124.144531 C 136.125 124.03125 136.890625 123.851562 137.640625 123.601562 C 138.390625 123.355469 139.113281 123.039062 139.808594 122.660156 C 140.503906 122.28125 141.160156 121.847656 141.777344 121.351562 C 142.390625 120.855469 142.960938 120.308594 143.476562 119.710938 C 143.996094 119.113281 144.457031 118.472656 144.859375 117.792969 C 145.265625 117.113281 145.605469 116.402344 145.882812 115.660156 C 146.160156 114.921875 146.367188 114.160156 146.507812 113.382812 C 146.648438 112.601562 146.71875 111.820312 146.71875 111.027344 C 146.71875 110.570312 146.695312 110.113281 146.648438 109.65625 L 150 112.855469 C 150.101562 112.949219 150.203125 112.949219 150.304688 112.855469 L 153.652344 109.664062 C 153.679688 110.113281 153.699219 110.570312 153.699219 111.027344 C 153.699219 121.5625 145.640625 130.21875 135.351562 131.167969 L 132.113281 127.710938 Z M 135.339844 124.144531" stroke-linecap="round" />
</g>
		<g transform="matrix(1 0 0 1 9.4 -9.84)" clip-path="url(#CLIPPATH_10)"  >
<clipPath id="CLIPPATH_10" >
	<path transform="matrix(1 0 0 1 -0.06 0.34) translate(-142.85, -101.88)" id="1" d="M 132 90.75 L 153.695312 90.75 L 153.695312 113 L 132 113 Z M 132 90.75" stroke-linecap="round" />
</clipPath>
<path style="stroke: none; stroke-width: 1; stroke-dasharray: none; stroke-linecap: butt; stroke-dashoffset: 0; stroke-linejoin: miter; stroke-miterlimit: 4; fill: rgb(29,141,197); fill-rule: nonzero; opacity: 1;"  transform=" translate(-142.9, -101.54)" d="M 146.636719 109.105469 C 146.523438 108.320312 146.34375 107.554688 146.09375 106.804688 C 145.84375 106.054688 145.53125 105.332031 145.152344 104.636719 C 144.773438 103.941406 144.335938 103.289062 143.839844 102.671875 C 143.34375 102.054688 142.796875 101.488281 142.199219 100.96875 C 141.601562 100.453125 140.964844 99.992188 140.285156 99.585938 C 139.605469 99.183594 138.894531 98.84375 138.152344 98.566406 C 137.410156 98.292969 136.652344 98.082031 135.875 97.941406 C 135.09375 97.800781 134.3125 97.730469 133.519531 97.730469 C 133.0625 97.730469 132.605469 97.753906 132.148438 97.800781 L 135.34375 94.453125 C 135.445312 94.347656 135.445312 94.246094 135.34375 94.144531 L 132.15625 90.792969 C 132.605469 90.765625 133.0625 90.746094 133.519531 90.746094 C 144.054688 90.746094 152.710938 98.804688 153.660156 109.09375 L 150.203125 112.332031 Z M 146.636719 109.105469" stroke-linecap="round" />
</g>
		<g transform="matrix(1 0 0 1 -9.47 -9.74)" clip-path="url(#CLIPPATH_11)"  >
<clipPath id="CLIPPATH_11" >
	<path transform="matrix(1 0 0 1 0.09 0.24) translate(-124.12, -101.88)" id="ec83e1df1e" d="M 113.242188 90.75 L 135 90.75 L 135 113 L 113.242188 113 Z M 113.242188 90.75" stroke-linecap="round" />
</clipPath>
<path style="stroke: none; stroke-width: 1; stroke-dasharray: none; stroke-linecap: butt; stroke-dashoffset: 0; stroke-linejoin: miter; stroke-miterlimit: 4; fill: rgb(159,115,178); fill-rule: nonzero; opacity: 1;"  transform=" translate(-124.03, -101.63)" d="M 131.597656 97.902344 C 130.8125 98.015625 130.046875 98.195312 129.296875 98.445312 C 128.546875 98.695312 127.824219 99.007812 127.128906 99.386719 C 126.433594 99.765625 125.78125 100.203125 125.164062 100.699219 C 124.546875 101.195312 123.980469 101.742188 123.460938 102.339844 C 122.945312 102.9375 122.484375 103.574219 122.078125 104.257812 C 121.675781 104.9375 121.335938 105.648438 121.058594 106.386719 C 120.785156 107.128906 120.574219 107.886719 120.433594 108.667969 C 120.292969 109.445312 120.222656 110.230469 120.222656 111.019531 C 120.222656 111.476562 120.246094 111.933594 120.292969 112.390625 L 116.9375 109.195312 C 116.835938 109.097656 116.734375 109.097656 116.632812 109.195312 L 113.285156 112.386719 C 113.257812 111.933594 113.238281 111.480469 113.238281 111.019531 C 113.238281 100.484375 121.296875 91.828125 131.585938 90.878906 L 134.824219 94.335938 Z M 131.597656 97.902344" stroke-linecap="round" />
</g>
		<g transform="matrix(1 0 0 1 -9.42 9.04)" clip-path="url(#CLIPPATH_12)"  >
<clipPath id="CLIPPATH_12" >
	<path transform="matrix(1 0 0 1 0.04 -0.31) translate(-124.12, -120.1)" id="8" d="M 113.242188 109 L 135 109 L 135 131.203125 L 113.242188 131.203125 Z M 113.242188 109" stroke-linecap="round" />
</clipPath>
<path style="stroke: none; stroke-width: 1; stroke-dasharray: none; stroke-linecap: butt; stroke-dashoffset: 0; stroke-linejoin: miter; stroke-miterlimit: 4; fill: rgb(14,78,153); fill-rule: nonzero; opacity: 1;"  transform=" translate(-124.08, -120.41)" d="M 120.351562 112.847656 C 120.464844 113.632812 120.644531 114.398438 120.894531 115.148438 C 121.140625 115.898438 121.457031 116.621094 121.835938 117.316406 C 122.214844 118.011719 122.652344 118.667969 123.144531 119.285156 C 123.640625 119.898438 124.1875 120.46875 124.785156 120.984375 C 125.382812 121.503906 126.023438 121.964844 126.703125 122.367188 C 127.382812 122.773438 128.09375 123.113281 128.835938 123.390625 C 129.578125 123.667969 130.335938 123.875 131.113281 124.015625 C 131.894531 124.15625 132.675781 124.226562 133.46875 124.226562 C 133.925781 124.226562 134.382812 124.203125 134.839844 124.15625 L 131.644531 127.507812 C 131.546875 127.609375 131.546875 127.710938 131.644531 127.8125 L 134.832031 131.160156 C 134.382812 131.1875 133.925781 131.207031 133.46875 131.207031 C 122.933594 131.207031 114.277344 123.148438 113.328125 112.859375 L 116.785156 109.621094 Z M 120.351562 112.847656" stroke-linecap="round" />
</g>
</g>
</g>
</svg>