<?xml version="1.0" encoding="UTF-8"?>
<!DOCTYPE svg PUBLIC "-//W3C//DTD SVG 1.1//EN" "http://www.w3.org/Graphics/SVG/1.1/DTD/svg11.dtd">
<svg xmlns="http://www.w3.org/2000/svg" version="1.1" width="512px" height="512px" style="shape-rendering:geometricPrecision; text-rendering:geometricPrecision; image-rendering:optimizeQuality; fill-rule:evenodd; clip-rule:evenodd" xmlns:xlink="http://www.w3.org/1999/xlink">
<g><path style="opacity:0.962" fill="#000000" d="M 204.5,-0.5 C 213.167,-0.5 221.833,-0.5 230.5,-0.5C 271.709,8.20861 296.876,33.2086 306,74.5C 307.141,126.315 307.641,178.148 307.5,230C 307.646,281.188 307.146,332.355 306,383.5C 297.311,416.019 276.144,433.352 242.5,435.5C 207.871,432.616 186.704,414.282 179,380.5C 178.333,324.5 178.333,268.5 179,212.5C 184.262,203.393 191.429,201.559 200.5,207C 201.667,208.833 202.833,210.667 204,212.5C 204.333,265.833 204.667,319.167 205,372.5C 207.262,392.196 218.095,404.03 237.5,408C 260.407,409.296 274.573,398.796 280,376.5C 280.667,277.833 280.667,179.167 280,80.5C 272.668,46.5006 251.668,28.1673 217,25.5C 181.419,28.4157 160.419,47.4157 154,82.5C 153.333,189.833 153.333,297.167 154,404.5C 161.5,450.667 188.333,477.5 234.5,485C 276.559,486.394 306.725,468.228 325,430.5C 327.783,423.036 329.783,415.37 331,407.5C 331.333,343.167 331.667,278.833 332,214.5C 335.844,204.441 342.677,201.608 352.5,206C 355.106,207.938 356.939,210.438 358,213.5C 358.667,277.167 358.667,340.833 358,404.5C 353.069,450.745 329.569,483.578 287.5,503C 277.644,506.793 267.644,509.627 257.5,511.5C 247.833,511.5 238.167,511.5 228.5,511.5C 171.846,501.012 138.346,467.346 128,410.5C 127.012,297.137 127.345,183.804 129,70.5C 139.21,30.786 164.377,7.11938 204.5,-0.5 Z"/></g>
</svg>
