<svg xmlns="http://www.w3.org/2000/svg" xmlns:xlink="http://www.w3.org/1999/xlink" width="641" zoomAndPan="magnify" viewBox="0 0 480.75 222.749995" height="297" preserveAspectRatio="xMidYMid meet" version="1.0"><defs><g/><clipPath id="c4c2c80a10"><path d="M 228 116 L 249.980469 116 L 249.980469 138 L 228 138 Z M 228 116 " clip-rule="nonzero"/></clipPath><clipPath id="253279228a"><path d="M 228 97.542969 L 249.980469 97.542969 L 249.980469 120 L 228 120 Z M 228 97.542969 " clip-rule="nonzero"/></clipPath><clipPath id="60c8703d7e"><path d="M 209.503906 97.542969 L 232 97.542969 L 232 120 L 209.503906 120 Z M 209.503906 97.542969 " clip-rule="nonzero"/></clipPath><clipPath id="7148226150"><path d="M 209.503906 116 L 232 116 L 232 138.019531 L 209.503906 138.019531 Z M 209.503906 116 " clip-rule="nonzero"/></clipPath></defs><g fill="#000000" fill-opacity="1"><g transform="translate(75.282188, 134.224971)"><g><path d="M 27.265625 0 L 16.890625 -15.390625 L 12.6875 -15.390625 L 12.6875 0 L 4.40625 0 L 4.40625 -40.65625 L 19.1875 -40.65625 C 24.414062 -40.65625 28.238281 -39.710938 30.65625 -37.828125 C 33.070312 -35.953125 34.28125 -32.875 34.28125 -28.59375 C 34.28125 -25.125 33.550781 -22.359375 32.09375 -20.296875 C 30.632812 -18.242188 28.566406 -16.929688 25.890625 -16.359375 L 36.75 0 Z M 25.890625 -28.234375 C 25.890625 -30.304688 25.363281 -31.695312 24.3125 -32.40625 C 23.257812 -33.113281 21.53125 -33.46875 19.125 -33.46875 L 12.6875 -33.46875 L 12.6875 -22.625 L 18.78125 -22.625 C 20.632812 -22.625 22.0625 -22.800781 23.0625 -23.15625 C 24.0625 -23.507812 24.78125 -24.054688 25.21875 -24.796875 C 25.664062 -25.535156 25.890625 -26.679688 25.890625 -28.234375 Z M 25.890625 -28.234375 "/></g></g></g><g fill="#000000" fill-opacity="1"><g transform="translate(113.001564, 134.224971)"><g><path d="M 10.515625 -13.421875 C 10.648438 -10.679688 11.316406 -8.710938 12.515625 -7.515625 C 13.710938 -6.328125 15.59375 -5.734375 18.15625 -5.734375 C 19.644531 -5.734375 20.953125 -5.914062 22.078125 -6.28125 C 23.203125 -6.65625 24.1875 -7.375 25.03125 -8.4375 L 30.671875 -4.40625 C 29.441406 -2.625 27.84375 -1.289062 25.875 -0.40625 C 23.90625 0.46875 21.21875 0.90625 17.8125 0.90625 C 12.726562 0.90625 8.9375 -0.421875 6.4375 -3.078125 C 3.945312 -5.742188 2.703125 -9.769531 2.703125 -15.15625 C 2.703125 -26.1875 7.640625 -31.703125 17.515625 -31.703125 C 21.898438 -31.703125 25.242188 -30.460938 27.546875 -27.984375 C 29.847656 -25.503906 31 -21.894531 31 -17.15625 L 31 -13.421875 Z M 23.46875 -18.65625 C 23.46875 -23.332031 21.421875 -25.671875 17.328125 -25.671875 C 15.984375 -25.671875 14.878906 -25.441406 14.015625 -24.984375 C 13.148438 -24.523438 12.457031 -23.835938 11.9375 -22.921875 C 11.425781 -22.015625 11.019531 -20.59375 10.71875 -18.65625 Z M 23.46875 -18.65625 "/></g></g></g><g fill="#000000" fill-opacity="1"><g transform="translate(146.578864, 134.224971)"><g><path d="M 27.796875 -8.78125 C 27.796875 -6.75 27.28125 -5.003906 26.25 -3.546875 C 25.21875 -2.097656 23.753906 -0.992188 21.859375 -0.234375 C 19.972656 0.523438 17.816406 0.90625 15.390625 0.90625 C 8.953125 0.90625 4.566406 -0.882812 2.234375 -4.46875 L 7.875 -8.4375 C 8.789062 -7.175781 9.851562 -6.332031 11.0625 -5.90625 C 12.269531 -5.488281 13.554688 -5.28125 14.921875 -5.28125 C 18.523438 -5.28125 20.328125 -6.332031 20.328125 -8.4375 C 20.328125 -9.351562 19.816406 -10.0625 18.796875 -10.5625 C 17.785156 -11.0625 16.191406 -11.578125 14.015625 -12.109375 C 9.921875 -13.003906 7.039062 -14.273438 5.375 -15.921875 C 3.707031 -17.566406 2.875 -19.703125 2.875 -22.328125 C 2.875 -25.046875 3.914062 -27.285156 6 -29.046875 C 8.09375 -30.816406 11.164062 -31.703125 15.21875 -31.703125 C 17.976562 -31.703125 20.410156 -31.257812 22.515625 -30.375 C 24.617188 -29.5 26.242188 -28.175781 27.390625 -26.40625 L 21.71875 -22.390625 C 20.363281 -24.460938 18.160156 -25.5 15.109375 -25.5 C 13.535156 -25.5 12.347656 -25.226562 11.546875 -24.6875 C 10.742188 -24.15625 10.34375 -23.46875 10.34375 -22.625 C 10.34375 -21.820312 10.703125 -21.179688 11.421875 -20.703125 C 12.148438 -20.222656 13.582031 -19.71875 15.71875 -19.1875 C 19.226562 -18.320312 21.726562 -17.460938 23.21875 -16.609375 C 24.71875 -15.765625 25.851562 -14.707031 26.625 -13.4375 C 27.40625 -12.175781 27.796875 -10.625 27.796875 -8.78125 Z M 27.796875 -8.78125 "/></g></g></g><g fill="#000000" fill-opacity="1"><g transform="translate(176.719113, 134.224971)"><g><path d="M 27.796875 -8.78125 C 27.796875 -6.75 27.28125 -5.003906 26.25 -3.546875 C 25.21875 -2.097656 23.753906 -0.992188 21.859375 -0.234375 C 19.972656 0.523438 17.816406 0.90625 15.390625 0.90625 C 8.953125 0.90625 4.566406 -0.882812 2.234375 -4.46875 L 7.875 -8.4375 C 8.789062 -7.175781 9.851562 -6.332031 11.0625 -5.90625 C 12.269531 -5.488281 13.554688 -5.28125 14.921875 -5.28125 C 18.523438 -5.28125 20.328125 -6.332031 20.328125 -8.4375 C 20.328125 -9.351562 19.816406 -10.0625 18.796875 -10.5625 C 17.785156 -11.0625 16.191406 -11.578125 14.015625 -12.109375 C 9.921875 -13.003906 7.039062 -14.273438 5.375 -15.921875 C 3.707031 -17.566406 2.875 -19.703125 2.875 -22.328125 C 2.875 -25.046875 3.914062 -27.285156 6 -29.046875 C 8.09375 -30.816406 11.164062 -31.703125 15.21875 -31.703125 C 17.976562 -31.703125 20.410156 -31.257812 22.515625 -30.375 C 24.617188 -29.5 26.242188 -28.175781 27.390625 -26.40625 L 21.71875 -22.390625 C 20.363281 -24.460938 18.160156 -25.5 15.109375 -25.5 C 13.535156 -25.5 12.347656 -25.226562 11.546875 -24.6875 C 10.742188 -24.15625 10.34375 -23.46875 10.34375 -22.625 C 10.34375 -21.820312 10.703125 -21.179688 11.421875 -20.703125 C 12.148438 -20.222656 13.582031 -19.71875 15.71875 -19.1875 C 19.226562 -18.320312 21.726562 -17.460938 23.21875 -16.609375 C 24.71875 -15.765625 25.851562 -14.707031 26.625 -13.4375 C 27.40625 -12.175781 27.796875 -10.625 27.796875 -8.78125 Z M 27.796875 -8.78125 "/></g></g></g><g fill="#000000" fill-opacity="1"><g transform="translate(206.851402, 134.224971)"><g/></g></g><g fill="#000000" fill-opacity="1"><g transform="translate(221.30462, 134.224971)"><g/></g></g><g fill="#000000" fill-opacity="1"><g transform="translate(235.757839, 134.224971)"><g/></g></g><g fill="#000000" fill-opacity="1"><g transform="translate(250.208107, 134.224971)"><g><path d="M 23.890625 0 L 23.890625 -3.96875 C 22.554688 -2.539062 20.921875 -1.367188 18.984375 -0.453125 C 17.054688 0.453125 15.203125 0.90625 13.421875 0.90625 C 9.941406 0.90625 7.503906 -0.0546875 6.109375 -1.984375 C 4.722656 -3.910156 4.03125 -6.65625 4.03125 -10.21875 L 4.03125 -30.828125 L 11.609375 -30.828125 L 11.609375 -13.84375 C 11.609375 -11.664062 11.734375 -10 11.984375 -8.84375 C 12.242188 -7.6875 12.660156 -6.882812 13.234375 -6.4375 C 13.816406 -6 14.664062 -5.78125 15.78125 -5.78125 C 18.03125 -5.78125 20.734375 -7.257812 23.890625 -10.21875 L 23.890625 -30.828125 L 31.46875 -30.828125 L 31.46875 0 Z M 23.890625 0 "/></g></g></g><g fill="#000000" fill-opacity="1"><g transform="translate(285.959266, 134.224971)"><g><path d="M 22.859375 -23.421875 C 22.078125 -23.804688 21.039062 -24 19.75 -24 C 18.332031 -24 16.992188 -23.660156 15.734375 -22.984375 C 14.472656 -22.316406 13.175781 -21.332031 11.84375 -20.03125 L 11.84375 0 L 4.265625 0 L 4.265625 -30.828125 L 11.84375 -30.828125 L 11.84375 -26.40625 C 13.132812 -27.820312 14.523438 -28.988281 16.015625 -29.90625 C 17.503906 -30.832031 19.164062 -31.296875 21 -31.296875 C 22.570312 -31.296875 23.691406 -31.085938 24.359375 -30.671875 Z M 22.859375 -23.421875 "/></g></g></g><g fill="#000000" fill-opacity="1"><g transform="translate(310.635493, 134.224971)"><g><path d="M 29.734375 -4.40625 C 28.554688 -2.664062 27.007812 -1.34375 25.09375 -0.4375 C 23.175781 0.457031 20.75 0.90625 17.8125 0.90625 C 12.832031 0.90625 9.066406 -0.445312 6.515625 -3.15625 C 3.972656 -5.875 2.703125 -9.894531 2.703125 -15.21875 C 2.703125 -20.40625 3.9375 -24.445312 6.40625 -27.34375 C 8.875 -30.25 12.578125 -31.703125 17.515625 -31.703125 C 20.160156 -31.703125 22.515625 -31.269531 24.578125 -30.40625 C 26.640625 -29.539062 28.210938 -28.207031 29.296875 -26.40625 L 23.65625 -22.390625 C 22.96875 -23.304688 22.160156 -23.984375 21.234375 -24.421875 C 20.316406 -24.867188 19.132812 -25.09375 17.6875 -25.09375 C 15.101562 -25.09375 13.257812 -24.296875 12.15625 -22.703125 C 11.0625 -21.117188 10.515625 -18.664062 10.515625 -15.34375 C 10.515625 -12.007812 11.078125 -9.570312 12.203125 -8.03125 C 13.328125 -6.5 15.253906 -5.734375 17.984375 -5.734375 C 19.160156 -5.734375 20.238281 -5.898438 21.21875 -6.234375 C 22.195312 -6.566406 23.125 -7.300781 24 -8.4375 Z M 29.734375 -4.40625 "/></g></g></g><g fill="#000000" fill-opacity="1"><g transform="translate(341.74517, 134.224971)"><g><path d="M 10.515625 -13.421875 C 10.648438 -10.679688 11.316406 -8.710938 12.515625 -7.515625 C 13.710938 -6.328125 15.59375 -5.734375 18.15625 -5.734375 C 19.644531 -5.734375 20.953125 -5.914062 22.078125 -6.28125 C 23.203125 -6.65625 24.1875 -7.375 25.03125 -8.4375 L 30.671875 -4.40625 C 29.441406 -2.625 27.84375 -1.289062 25.875 -0.40625 C 23.90625 0.46875 21.21875 0.90625 17.8125 0.90625 C 12.726562 0.90625 8.9375 -0.421875 6.4375 -3.078125 C 3.945312 -5.742188 2.703125 -9.769531 2.703125 -15.15625 C 2.703125 -26.1875 7.640625 -31.703125 17.515625 -31.703125 C 21.898438 -31.703125 25.242188 -30.460938 27.546875 -27.984375 C 29.847656 -25.503906 31 -21.894531 31 -17.15625 L 31 -13.421875 Z M 23.46875 -18.65625 C 23.46875 -23.332031 21.421875 -25.671875 17.328125 -25.671875 C 15.984375 -25.671875 14.878906 -25.441406 14.015625 -24.984375 C 13.148438 -24.523438 12.457031 -23.835938 11.9375 -22.921875 C 11.425781 -22.015625 11.019531 -20.59375 10.71875 -18.65625 Z M 23.46875 -18.65625 "/></g></g></g><g fill="#000000" fill-opacity="1"><g transform="translate(375.322471, 134.224971)"><g><path d="M 27.796875 -8.78125 C 27.796875 -6.75 27.28125 -5.003906 26.25 -3.546875 C 25.21875 -2.097656 23.753906 -0.992188 21.859375 -0.234375 C 19.972656 0.523438 17.816406 0.90625 15.390625 0.90625 C 8.953125 0.90625 4.566406 -0.882812 2.234375 -4.46875 L 7.875 -8.4375 C 8.789062 -7.175781 9.851562 -6.332031 11.0625 -5.90625 C 12.269531 -5.488281 13.554688 -5.28125 14.921875 -5.28125 C 18.523438 -5.28125 20.328125 -6.332031 20.328125 -8.4375 C 20.328125 -9.351562 19.816406 -10.0625 18.796875 -10.5625 C 17.785156 -11.0625 16.191406 -11.578125 14.015625 -12.109375 C 9.921875 -13.003906 7.039062 -14.273438 5.375 -15.921875 C 3.707031 -17.566406 2.875 -19.703125 2.875 -22.328125 C 2.875 -25.046875 3.914062 -27.285156 6 -29.046875 C 8.09375 -30.816406 11.164062 -31.703125 15.21875 -31.703125 C 17.976562 -31.703125 20.410156 -31.257812 22.515625 -30.375 C 24.617188 -29.5 26.242188 -28.175781 27.390625 -26.40625 L 21.71875 -22.390625 C 20.363281 -24.460938 18.160156 -25.5 15.109375 -25.5 C 13.535156 -25.5 12.347656 -25.226562 11.546875 -24.6875 C 10.742188 -24.15625 10.34375 -23.46875 10.34375 -22.625 C 10.34375 -21.820312 10.703125 -21.179688 11.421875 -20.703125 C 12.148438 -20.222656 13.582031 -19.71875 15.71875 -19.1875 C 19.226562 -18.320312 21.726562 -17.460938 23.21875 -16.609375 C 24.71875 -15.765625 25.851562 -14.707031 26.625 -13.4375 C 27.40625 -12.175781 27.796875 -10.625 27.796875 -8.78125 Z M 27.796875 -8.78125 "/></g></g></g><g clip-path="url(#c4c2c80a10)"><path fill="#ffd64b" d="M 231.617188 130.957031 C 232.398438 130.84375 233.167969 130.664062 233.917969 130.414062 C 234.667969 130.164062 235.390625 129.851562 236.085938 129.472656 C 236.78125 129.09375 237.4375 128.65625 238.054688 128.160156 C 238.671875 127.664062 239.238281 127.117188 239.757812 126.519531 C 240.273438 125.917969 240.738281 125.28125 241.140625 124.601562 C 241.542969 123.917969 241.886719 123.207031 242.160156 122.46875 C 242.4375 121.726562 242.648438 120.964844 242.789062 120.1875 C 242.929688 119.40625 243 118.621094 243 117.832031 C 243 117.371094 242.976562 116.914062 242.929688 116.460938 L 246.28125 119.65625 C 246.382812 119.753906 246.484375 119.753906 246.589844 119.65625 L 249.933594 116.464844 C 249.964844 116.917969 249.980469 117.371094 249.980469 117.832031 C 249.980469 128.375 241.921875 137.03125 231.628906 137.984375 L 228.386719 134.523438 Z M 231.617188 130.957031 " fill-opacity="1" fill-rule="nonzero"/></g><g clip-path="url(#253279228a)"><path fill="#1d8dc5" d="M 242.917969 115.90625 C 242.804688 115.125 242.625 114.355469 242.375 113.605469 C 242.125 112.855469 241.8125 112.132812 241.433594 111.4375 C 241.054688 110.742188 240.617188 110.085938 240.121094 109.472656 C 239.625 108.855469 239.078125 108.289062 238.476562 107.769531 C 237.878906 107.25 237.242188 106.789062 236.5625 106.386719 C 235.878906 105.980469 235.167969 105.640625 234.429688 105.363281 C 233.6875 105.089844 232.925781 104.878906 232.148438 104.738281 C 231.371094 104.597656 230.585938 104.527344 229.792969 104.527344 C 229.335938 104.527344 228.878906 104.550781 228.421875 104.597656 L 231.621094 101.246094 C 231.71875 101.144531 231.71875 101.042969 231.621094 100.9375 L 228.425781 97.585938 C 228.878906 97.558594 229.335938 97.539062 229.792969 97.539062 C 240.335938 97.539062 248.992188 105.601562 249.945312 115.894531 L 246.484375 119.136719 Z M 242.917969 115.90625 " fill-opacity="1" fill-rule="nonzero"/></g><g clip-path="url(#60c8703d7e)"><path fill="#9f73b2" d="M 227.867188 104.699219 C 227.085938 104.8125 226.320312 104.992188 225.566406 105.242188 C 224.816406 105.492188 224.09375 105.804688 223.398438 106.183594 C 222.703125 106.5625 222.050781 107 221.433594 107.496094 C 220.816406 107.992188 220.25 108.539062 219.730469 109.140625 C 219.210938 109.738281 218.75 110.375 218.347656 111.054688 C 217.945312 111.738281 217.605469 112.449219 217.328125 113.1875 C 217.050781 113.929688 216.839844 114.691406 216.699219 115.46875 C 216.5625 116.246094 216.492188 117.03125 216.492188 117.824219 C 216.488281 118.28125 216.511719 118.738281 216.558594 119.195312 L 213.203125 115.996094 C 213.101562 115.898438 213 115.898438 212.894531 115.996094 L 209.550781 119.191406 C 209.519531 118.738281 209.503906 118.28125 209.503906 117.824219 C 209.503906 107.28125 217.5625 98.625 227.855469 97.671875 L 231.101562 101.132812 Z M 227.867188 104.699219 " fill-opacity="1" fill-rule="nonzero"/></g><g clip-path="url(#7148226150)"><path fill="#0e4e99" d="M 216.617188 119.652344 C 216.730469 120.4375 216.910156 121.203125 217.160156 121.957031 C 217.410156 122.707031 217.722656 123.429688 218.101562 124.125 C 218.480469 124.820312 218.917969 125.476562 219.414062 126.089844 C 219.910156 126.707031 220.457031 127.277344 221.054688 127.792969 C 221.652344 128.3125 222.292969 128.773438 222.972656 129.179688 C 223.652344 129.582031 224.363281 129.921875 225.105469 130.199219 C 225.847656 130.476562 226.609375 130.683594 227.386719 130.824219 C 228.164062 130.964844 228.949219 131.035156 229.742188 131.035156 C 230.199219 131.035156 230.65625 131.015625 231.113281 130.96875 L 227.914062 134.320312 C 227.820312 134.421875 227.820312 134.523438 227.914062 134.625 L 231.109375 137.972656 C 230.65625 138.003906 230.203125 138.019531 229.742188 138.019531 C 219.199219 138.019531 210.542969 129.960938 209.589844 119.664062 L 213.050781 116.421875 Z M 216.617188 119.652344 " fill-opacity="1" fill-rule="nonzero"/></g><path stroke-linecap="butt" transform="matrix(0.746872, 0, 0, 0.749549, 79.006507, 143.948223)" fill="none" stroke-linejoin="miter" d="M 0.00174748 2.002533 L 109.395479 2.002533 " stroke="#0e4e99" stroke-width="4" stroke-opacity="1" stroke-miterlimit="4"/><path stroke-linecap="butt" transform="matrix(0.746872, 0, 0, 0.749549, 157.62708, 143.948223)" fill="none" stroke-linejoin="miter" d="M 0.00244556 2.002533 L 109.396178 2.002533 " stroke="#9f73b2" stroke-width="4" stroke-opacity="1" stroke-miterlimit="4"/><path stroke-linecap="butt" transform="matrix(0.746872, 0, 0, 0.749549, 239.625415, 143.948223)" fill="none" stroke-linejoin="miter" d="M -0.000556068 2.002533 L 109.398406 2.002533 " stroke="#ffd64b" stroke-width="4" stroke-opacity="1" stroke-miterlimit="4"/><path stroke-linecap="butt" transform="matrix(0.746872, 0, 0, 0.749549, 321.623768, 143.948223)" fill="none" stroke-linejoin="miter" d="M 0.00164998 2.002533 L 109.395382 2.002533 " stroke="#1d8dc5" stroke-width="4" stroke-opacity="1" stroke-miterlimit="4"/></svg>