<?xml version="1.0" standalone="no"?>
<!DOCTYPE svg PUBLIC "-//W3C//DTD SVG 20010904//EN"
 "http://www.w3.org/TR/2001/REC-SVG-20010904/DTD/svg10.dtd">
<svg version="1.0" xmlns="http://www.w3.org/2000/svg"
 width="700.000000pt" height="700.000000pt" viewBox="0 0 700.000000 700.000000"
 preserveAspectRatio="xMidYMid meet">
<metadata>
Created by potrace 1.14, written by Peter Selinger 2001-2017
</metadata>
<g transform="translate(0.000000,700.000000) scale(0.100000,-0.100000)"
fill="#000000" stroke="none">
<path d="M3343 6850 l-42 -5 97 -101 c53 -56 162 -170 242 -254 80 -84 155
-162 168 -173 12 -12 22 -30 22 -42 0 -22 -12 -35 -279 -314 -91 -95 -185
-193 -207 -218 -36 -39 -49 -46 -90 -51 l-49 -5 49 54 c28 30 75 81 105 114
31 34 88 96 126 140 66 75 141 157 212 234 l33 35 -23 25 c-40 45 -128 139
-337 360 -74 79 -143 153 -155 166 -13 14 -29 21 -45 19 -181 -22 -201 -25
-270 -39 -14 -3 -41 -8 -60 -11 -70 -12 -300 -74 -392 -105 -233 -79 -437
-172 -645 -296 -288 -171 -542 -377 -761 -619 -30 -32 -67 -73 -82 -90 -53
-58 -225 -293 -290 -396 -82 -132 -215 -393 -267 -528 -40 -104 -82 -228 -122
-365 -25 -85 -78 -348 -86 -428 -4 -32 -9 -68 -12 -80 -3 -12 -7 -150 -10
-307 -5 -277 -5 -284 13 -270 11 8 62 56 114 106 98 94 239 228 363 347 40 37
79 67 87 67 17 0 44 -24 280 -250 96 -92 203 -194 238 -226 58 -55 63 -62 60
-96 l-3 -37 -55 52 c-59 54 -200 182 -236 214 -12 10 -64 57 -115 104 -128
117 -169 152 -174 148 -9 -9 -243 -230 -275 -259 -19 -18 -93 -87 -163 -153
l-128 -121 6 -55 c10 -88 45 -303 55 -336 5 -16 11 -41 14 -55 46 -259 210
-663 389 -960 188 -314 474 -646 736 -856 13 -10 28 -24 35 -30 57 -53 328
-236 463 -312 361 -203 851 -362 1228 -398 28 -3 61 -7 75 -10 32 -8 530 -15
541 -9 4 3 -11 25 -34 49 -23 24 -116 121 -207 216 -91 95 -179 187 -195 204
-69 71 -95 107 -88 120 11 18 89 102 312 334 102 107 188 198 191 203 3 4 24
11 45 14 22 3 46 8 54 11 21 7 13 -3 -174 -210 -44 -49 -91 -101 -105 -116
-115 -125 -193 -211 -209 -231 l-19 -25 55 -59 c31 -33 108 -116 173 -185 65
-69 137 -145 160 -170 99 -107 153 -159 159 -156 3 2 33 7 66 10 33 3 70 8 82
10 11 3 43 8 70 11 26 4 80 14 118 22 39 8 81 17 95 19 14 3 81 21 150 40 459
130 896 363 1257 669 81 69 330 319 383 385 25 30 47 57 50 60 17 17 86 109
147 196 140 200 257 418 356 659 55 135 138 396 154 485 2 14 8 41 13 60 11
43 38 199 46 266 3 27 9 78 13 114 9 72 15 540 7 540 -6 0 -22 -15 -230 -213
-93 -89 -205 -197 -250 -239 -45 -43 -88 -78 -96 -78 -16 0 -35 17 -304 274
-220 210 -256 246 -256 260 -1 6 -3 28 -6 49 -6 41 0 46 24 18 15 -16 286
-262 355 -322 16 -13 63 -56 105 -96 43 -40 82 -72 87 -72 6 -1 42 29 80 65
39 36 124 116 189 178 299 278 306 286 301 320 -2 17 -9 67 -15 111 -6 44 -13
94 -16 110 -13 74 -46 233 -54 260 -44 148 -92 304 -99 320 -5 11 -28 67 -51
125 -42 104 -140 303 -201 410 -164 284 -424 599 -684 829 -71 63 -300 241
-310 241 -4 0 -24 12 -44 28 -42 32 -43 32 -186 115 -204 118 -399 205 -627
280 -124 41 -343 97 -442 112 -21 4 -46 8 -55 10 -9 1 -41 6 -71 10 -30 4 -62
9 -71 10 -82 15 -486 26 -576 15z"/>
</g>
</svg>
