<svg width="358.5" height="358.499998" xmlns="http://www.w3.org/2000/svg" version="1.0" preserveAspectRatio="xMidYMid meet" zoomAndPan="magnify">
 <defs>
  <g id="svg_1"/>
  <clipPath id="203f36ede6">
   <path id="svg_2" clip-rule="nonzero" d="m172,172l110.64453,0l0,110.64453l-110.64453,0l0,-110.64453zm0,0"/>
  </clipPath>
  <clipPath id="dc476ecf26">
   <path id="svg_3" clip-rule="nonzero" d="m172,75.64453l110.64453,0l0,111.35547l-110.64453,0l0,-111.35547zm0,0"/>
  </clipPath>
  <clipPath id="135bc1013d">
   <path id="svg_4" clip-rule="nonzero" d="m75.64453,76l111.35547,0l0,111l-111.35547,0l0,-111zm0,0"/>
  </clipPath>
  <clipPath id="6bf68a76d6">
   <path id="svg_5" clip-rule="nonzero" d="m76,172l111,0l0,110.64453l-111,0l0,-110.64453zm0,0"/>
  </clipPath>
  <clipPath id="dc4b2f13e9">
   <path id="svg_6" clip-rule="nonzero" d="m111.14063,111.14063l136.5,0l0,136.5l-136.5,0l0,-136.5zm0,0"/>
  </clipPath>
 </defs>
 <g>
  <title>Layer 1</title>
  <g id="svg_7" clip-path="url(#203f36ede6)">
   <path id="svg_8" fill-rule="nonzero" d="m188.72656,246.52734c1.9961,-0.28515 3.98047,-0.66015 5.94532,-1.125c1.96875,-0.46093 3.91015,-1.01171 5.82421,-1.64843c1.91797,-0.63672 3.80469,-1.35547 5.65625,-2.16016c1.85157,-0.80469 3.66407,-1.69141 5.4375,-2.65625c1.77344,-0.96875 3.5,-2.01172 5.17969,-3.13281c1.67969,-1.1211 3.3086,-2.31641 4.88281,-3.58203c1.57032,-1.26563 3.08594,-2.60157 4.53907,-4c1.45703,-1.40235 2.84375,-2.86719 4.16797,-4.39453c1.32421,-1.52344 2.57421,-3.10547 3.75781,-4.74219c1.18359,-1.64063 2.28906,-3.32813 3.32031,-5.0625c1.03125,-1.73828 1.98438,-3.51563 2.85547,-5.33594c0.87109,-1.82422 1.66016,-3.67969 2.36719,-5.57422c0.70703,-1.89062 1.32812,-3.80859 1.86328,-5.75781c0.53515,-1.94922 0.98047,-3.91406 1.33984,-5.90234c0.35938,-1.98829 0.62891,-3.98829 0.8086,-6c0.17968,-2.01172 0.26953,-4.02735 0.26953,-6.04688c0,-2.34375 -0.11719,-4.68359 -0.35547,-7.01562l17.14062,16.35937c0.21875,0.20703 0.48438,0.3125 0.78516,0.3125c0.30469,0 0.56641,-0.10547 0.78906,-0.3125l17.11328,-16.32812c0.15235,2.30859 0.24219,4.63671 0.24219,6.98437c0,53.91406 -41.22266,98.19531 -93.86719,103.05859l-16.58593,-17.6914l16.52343,-18.2461zm0,0" fill="#ffd64b"/>
  </g>
  <g id="svg_9" clip-path="url(#dc476ecf26)">
   <path id="svg_10" fill-rule="nonzero" d="m246.52734,169.56641c-0.28906,-2 -0.66406,-3.98438 -1.125,-5.94922c-0.46484,-1.96485 -1.01562,-3.90625 -1.65234,-5.82031c-0.63672,-1.91797 -1.35547,-3.80079 -2.16016,-5.65235c-0.80468,-1.85156 -1.6914,-3.66406 -2.66015,-5.4375c-0.96485,-1.77344 -2.01172,-3.5 -3.13281,-5.17969c-1.1211,-1.67968 -2.3125,-3.30468 -3.58204,-4.8789c-1.26562,-1.57031 -2.59765,-3.08594 -4,-4.53906c-1.40234,-1.45313 -2.86718,-2.83985 -4.39062,-4.16407c-1.52734,-1.32422 -3.10938,-2.57422 -4.74609,-3.75781c-1.63672,-1.17969 -3.32422,-2.28516 -5.0625,-3.31641c-1.73438,-1.03125 -3.51563,-1.98046 -5.33594,-2.85546c-1.82031,-0.8711 -3.67578,-1.66016 -5.57031,-2.36719c-1.89063,-0.70313 -3.8125,-1.32422 -5.75782,-1.85938c-1.94922,-0.53515 -3.91406,-0.98047 -5.90234,-1.33984c-1.98828,-0.35938 -3.98438,-0.62891 -5.99609,-0.80859c-2.01172,-0.17969 -4.02735,-0.26954 -6.04688,-0.26954c-2.34375,0 -4.68359,0.11719 -7.01562,0.35938l16.35937,-17.14453c0.10156,-0.10547 0.17969,-0.22656 0.23438,-0.35938c0.05468,-0.13672 0.08203,-0.27734 0.08203,-0.42578c0,-0.14844 -0.02735,-0.28906 -0.08203,-0.42187c-0.05469,-0.13672 -0.13282,-0.25782 -0.23438,-0.36328l-16.32812,-17.14454c2.30859,-0.14843 4.63671,-0.23437 6.98437,-0.23437c53.91406,0 98.19531,41.22266 103.05469,93.86328l-17.6875,16.58594l-18.2461,-16.51953zm0,0" fill="#1d8dc5"/>
  </g>
  <g id="svg_11" clip-path="url(#135bc1013d)">
   <path id="svg_12" fill-rule="nonzero" d="m169.56641,112.24609c-2,0.28907 -3.98438,0.66407 -5.94922,1.125c-1.96485,0.46485 -3.90625,1.01563 -5.82031,1.65235c-1.91797,0.63672 -3.80079,1.35547 -5.65235,2.16015c-1.85156,0.80469 -3.66406,1.69141 -5.4375,2.66016c-1.77344,0.96484 -3.5,2.01172 -5.17969,3.13281c-1.67968,1.1211 -3.30468,2.3125 -4.8789,3.58203c-1.57031,1.26563 -3.08594,2.59766 -4.53906,4c-1.45313,1.40235 -2.83985,2.86719 -4.16407,4.39063c-1.32422,1.52734 -2.57422,3.10937 -3.75781,4.74609c-1.17969,1.63672 -2.28516,3.32422 -3.31641,5.0625c-1.03125,1.73438 -1.98046,3.51563 -2.85546,5.33594c-0.8711,1.82031 -1.66016,3.67578 -2.36719,5.57031c-0.70313,1.89063 -1.32422,3.8125 -1.85938,5.75782c-0.53515,1.94921 -0.98047,3.91406 -1.33984,5.90234c-0.35938,1.98828 -0.62891,3.98437 -0.80859,5.99609c-0.17969,2.01172 -0.26954,4.02735 -0.26954,6.04688c0,2.34375 0.11719,4.68359 0.35938,7.01562l-17.16797,-16.35937c-0.21875,-0.20703 -0.48047,-0.3125 -0.78516,-0.3125c-0.30468,0 -0.5664,0.10547 -0.78906,0.3125l-17.10937,16.32812c-0.15625,-2.30859 -0.24219,-4.63672 -0.24219,-6.98437c0,-53.91406 41.21875,-98.19531 93.86328,-103.0586l16.58594,17.69141l-16.51953,18.24609zm0,0" fill="#9f73b2"/>
  </g>
  <g id="svg_13" clip-path="url(#6bf68a76d6)">
   <path id="svg_14" fill-rule="nonzero" d="m112.02344,188.72656c0.28515,1.9961 0.66015,3.98047 1.125,5.94532c0.46094,1.96875 1.01172,3.91015 1.64844,5.82421c0.63671,1.91797 1.35546,3.80469 2.16015,5.65625c0.80469,1.85157 1.69141,3.66407 2.65625,5.4375c0.96875,1.77344 2.01172,3.5 3.13281,5.17969c1.1211,1.67969 2.31641,3.3086 3.58204,4.88281c1.26562,1.57032 2.60156,3.08594 4,4.53907c1.40234,1.45703 2.86718,2.84375 4.39453,4.16797c1.52343,1.32421 3.10547,2.57421 4.74218,3.75781c1.64063,1.18359 3.32813,2.28906 5.0625,3.32031c1.73829,1.03125 3.51563,1.98438 5.33594,2.85547c1.82422,0.87109 3.67969,1.66016 5.57422,2.36719c1.89063,0.70703 3.8125,1.32812 5.75781,1.86328c1.94922,0.53515 3.91407,0.98047 5.90235,1.33984c1.98828,0.35938 3.98828,0.62891 6,0.8086c2.01172,0.17968 4.02734,0.26953 6.04687,0.26953c2.34375,0 4.6836,-0.11719 7.01563,-0.35547l-16.35938,17.14062c-0.20703,0.21875 -0.3125,0.48438 -0.3125,0.78516c0,0.30469 0.10547,0.56641 0.3125,0.78906l16.32813,17.11328c-2.3086,0.15235 -4.63672,0.24219 -6.98438,0.24219c-53.91406,0 -98.19531,-41.22266 -103.05859,-93.86719l17.6875,-16.58593l18.25,16.52343zm0,0" fill="#0e4e99"/>
  </g>
 </g>
</svg>